<?xml version="1.0" encoding="UTF-8"?>
<svg width="26px" height="26px" viewBox="0 0 26 26" version="1.1" xmlns="http://www.w3.org/2000/svg" xmlns:xlink="http://www.w3.org/1999/xlink">
    <!-- Generator: Sketch 51.3 (57544) - http://www.bohemiancoding.com/sketch -->
    <title>我的@1x</title>
    <desc>Created with Sketch.</desc>
    <defs></defs>
    <g id="Page-1" stroke="none" stroke-width="1" fill="none" fill-rule="evenodd">
        <g id="tabbar-icons" transform="translate(-290.000000, -569.000000)" fill-rule="nonzero">
            <g id="我的" transform="translate(290.000000, 569.000000)">
                <g id="Group" transform="translate(1.000000, 1.000000)">
                    <rect id="Rectangle-path" fill="#000000" opacity="0" x="0" y="0" width="24" height="24"></rect>
                    <path d="M11.9425,3.00349999 C13.0795,3.00349999 14.667,3.255 15.773,4.452 C16.647,5.3985 17.0745,6.78799999 17.044,8.58250001 C17.034,9.153 17.3305,9.69100001 17.8045,9.97700002 C17.8735,10.042 18.027,10.4215 17.8845,11.0095 C17.7595,11.5305 17.4735,11.7825 17.406,11.8075 C16.857,11.8825 16.3925,12.229 16.162,12.732 C15.712,13.7125 15.1055,14.522 14.408,15.0725 C14.284,15.17 14.1755,15.2845 14.0855,15.4135 C13.806,15.813 13.365,16.601 13.5475,17.3945 L13.618,17.6815 L13.774,17.9125 C14.0365,18.299 14.4555,18.551 14.9235,18.604 C15.3335,18.65 16.785,18.8375 18.2245,19.31 C19.0835,19.5915 19.796,19.925 20.3425,20.301 C20.8935,20.6805 21.2645,21.0975 21.442,21.527 L21.442,21.994 L11.942,21.994 L2.44200002,21.994 L2.44200002,21.5295 C2.62650002,21.0895 2.99600002,20.677 3.54200002,20.301 C4.08850001,19.925 4.80100001,19.5915 5.66000002,19.31 C7.09900001,18.8375 8.55050002,18.65 8.96050001,18.604 C9.42850001,18.5515 9.8475,18.2995 10.1075,17.9165 L10.2745,17.667 L10.338,17.3905 C10.5195,16.601 10.078,15.813 9.79849999,15.4135 C9.70849999,15.2845 9.6,15.1705 9.47749999,15.0735 C8.77899998,14.522 8.17249999,13.7125 7.72299998,12.7325 C7.49199998,12.2285 7.02649999,11.883 6.49549999,11.8115 C6.411,11.7825 6.12499999,11.5305 5.99949998,11.0095 C5.85749998,10.4215 6.01099999,10.042 6.06699998,9.98599997 C6.55399999,9.69099996 6.85049998,9.15299998 6.84049999,8.58249996 C6.81,6.78799997 7.2375,5.39849995 8.112,4.45149996 C9.21799999,3.255 10.8055,3.00349999 11.9425,3.00349999 M11.9425,1.50349999 C10.506,1.50349999 8.484,1.83849998 7.01050001,3.43449998 C5.865,4.67399998 5.304,6.41449999 5.3415,8.60799998 C5.34199999,8.64699998 5.32249999,8.68349998 5.28949999,8.70349999 C4.57849999,9.135 4.26499999,10.214 4.54149998,11.361 C4.79399998,12.408 5.50549999,13.188 6.27549998,13.294 C6.31249999,13.299 6.34399999,13.323 6.35949998,13.357 C6.90899998,14.554 7.66249999,15.5505 8.54799998,16.25 C8.55649999,16.2565 8.56399999,16.2635 8.56999999,16.273 C8.75049998,16.5305 8.91399998,16.89 8.87649998,17.054 C8.87549998,17.0595 8.87249998,17.0645 8.86899998,17.07 C8.85199999,17.095 8.82349999,17.109 8.79399998,17.1125 C8.25599998,17.173 6.73749998,17.3765 5.19249998,17.8835 C4.19799998,18.2105 3.35649998,18.6075 2.69199998,19.065 C1.83699998,19.6535 1.26349999,20.349 0.987999984,21.134 L0.985999992,21.139 C0.957,21.2265 0.942499992,21.3155 0.942499992,21.403 L0.942499992,22.5655 C0.942499992,23.0775 1.35799999,23.493 1.8705,23.493 L11.9425,23.493 L22.015,23.493 C22.5275,23.493 22.9425,23.0775 22.9425,22.5655 L22.9425,21.403 C22.9425,21.315 22.928,21.226 22.899,21.139 L22.897,21.134 C22.6215,20.3495 22.048,19.6535 21.193,19.065 C20.5285,18.6075 19.687,18.2105 18.6925,17.8835 C17.1475,17.3765 15.629,17.173 15.091,17.1125 C15.0615,17.109 15.0335,17.095 15.0165,17.07 C15.013,17.0645 15.01,17.0595 15.009,17.054 C14.971,16.8905 15.135,16.5305 15.315,16.273 C15.3215,16.2635 15.3285,16.2565 15.337,16.25 C16.2225,15.5505 16.976,14.5535 17.5255,13.357 C17.541,13.323 17.5725,13.299 17.6095,13.294 C18.3795,13.188 19.091,12.408 19.344,11.361 C19.6205,10.2135 19.307,9.135 18.596,8.70349999 C18.563,8.6835 18.5435,8.64699998 18.544,8.60799998 C18.5815,6.41449999 18.0205,4.67449999 16.875,3.43449998 C15.401,1.83850001 13.379,1.50349999 11.9425,1.50349999" id="Shape" fill="#4FC898"></path>
                </g>
            </g>
        </g>
    </g>
</svg>