<?xml version="1.0" encoding="UTF-8"?>
<svg width="26px" height="26px" viewBox="0 0 26 26" version="1.1" xmlns="http://www.w3.org/2000/svg" xmlns:xlink="http://www.w3.org/1999/xlink">
    <!-- Generator: Sketch 51.3 (57544) - http://www.bohemiancoding.com/sketch -->
    <title>扶뒬못@1x</title>
    <desc>Created with Sketch.</desc>
    <defs></defs>
    <g id="Page-1" stroke="none" stroke-width="1" fill="none" fill-rule="evenodd">
        <g id="tabbar-icons" transform="translate(-60.000000, -443.000000)" fill-rule="nonzero">
            <g id="扶뒬못" transform="translate(60.000000, 443.000000)">
                <g id="Group">
                    <rect id="Rectangle-path" fill="#000000" opacity="0" x="0" y="0" width="26" height="26"></rect>
                    <path d="M20.202,23.452 L5.798,23.452 C4.316,23.452 3.12,22.256 3.068,20.8 L2.08,9.152 C2.08,8.164 2.626,7.254 3.484,6.786 L11.44,2.366 C12.428,1.82 13.598,1.82 14.586,2.366 L22.542,6.76 C23.4,7.228 23.946,8.138 23.946,9.126 L23.946,9.204 L22.932,20.748 C22.88,22.256 21.684,23.452 20.202,23.452 Z M4.16,9.126 L5.174,20.748 C5.174,21.086 5.46,21.372 5.824,21.372 L20.228,21.372 C20.592,21.372 20.878,21.086 20.878,20.748 L20.878,20.67 L21.84,9.126 C21.84,8.918 21.71,8.71 21.502,8.606 L13.572,4.186 C13.208,3.978 12.792,3.978 12.454,4.186 L4.498,8.606 C4.29,8.71 4.16,8.892 4.16,9.126 Z" id="Shape" stroke="#BBBBBB" stroke-width="0.3" fill="#BBBBBB"></path>
                    <path d="M17.758,22.984 L15.678,22.984 L15.678,15.522 C15.678,15.236 15.522,15.08 15.47,15.08 L10.504,15.08 C10.452,15.08 10.296,15.236 10.296,15.522 L10.296,22.984 L8.216,22.984 L8.216,15.522 C8.216,14.118 9.23,13 10.504,13 L15.47,13 C16.718,13 17.758,14.144 17.758,15.522 L17.758,22.984 Z" id="Shape" stroke="#BBBBBB" stroke-width="0.3" fill="#BBBBBB"></path>
                </g>
            </g>
        </g>
    </g>
</svg>