<?xml version="1.0" encoding="UTF-8"?>
<svg width="26px" height="26px" viewBox="0 0 26 26" version="1.1" xmlns="http://www.w3.org/2000/svg" xmlns:xlink="http://www.w3.org/1999/xlink">
    <!-- Generator: Sketch 51.3 (57544) - http://www.bohemiancoding.com/sketch -->
    <title>卡片@1x</title>
    <desc>Created with Sketch.</desc>
    <defs></defs>
    <g id="Page-1" stroke="none" stroke-width="1" fill="none" fill-rule="evenodd">
        <g id="tabbar-icons" transform="translate(-175.000000, -569.000000)" fill-rule="nonzero">
            <g id="年卡" transform="translate(175.000000, 569.000000)">
                <g id="Group" transform="translate(1.000000, 0.000000)">
                    <rect id="Rectangle-path" fill="#000000" opacity="0" x="0" y="0" width="24" height="24"></rect>
                    <path d="M24,5.60599999 C24,3.98266666 22.618,2.66666667 20.914,2.66666667 L3.08666667,2.66666667 C1.38199999,2.66666667 0,3.98266666 0,5.60599999 L0,19.06 C0,20.684 1.38199999,22 3.08599999,22 L20.9133333,22 C22.618,22 24,20.684 24,19.0606667 L24,5.60666667 L24,5.60599999 Z M3.08599999,4.626 L20.9133333,4.626 C21.4793333,4.626 21.942,5.06733333 21.942,5.60599999 L21.942,7.99000001 L2.05733334,7.99000001 L2.05733334,5.60599999 C2.05733334,5.06733333 2.52,4.626 3.08599999,4.626 Z M20.9133333,20.0406667 L3.08666667,20.0406667 C2.52066668,20.0406667 2.058,19.5993333 2.058,19.0606667 L2.058,9.94933334 L21.9433333,9.94933334 L21.9433333,19.0606667 C21.9433333,19.5993333 21.4806667,20.0406667 20.9146667,20.0406667 L20.9133333,20.0406667 Z M8.982,15.5993333 L4.32,15.5993333 C3.75066666,15.5993333 3.29133333,16.0366667 3.29133333,16.5793333 C3.29133333,17.1206667 3.75133334,17.5586667 4.32,17.5586667 L8.98266666,17.5586667 C9.552,17.5586667 10.0113333,17.1206667 10.0113333,16.5786667 C10.0113333,16.0366666 9.552,15.5986667 8.98266666,15.5986667 L8.982,15.5993333 Z" id="Shape" fill="#4FC898"></path>
                </g>
            </g>
        </g>
    </g>
</svg>