<?xml version="1.0" encoding="UTF-8"?>
<svg width="40px" height="40px" viewBox="0 0 40 40" version="1.1" xmlns="http://www.w3.org/2000/svg" xmlns:xlink="http://www.w3.org/1999/xlink">
    <!-- Generator: Sketch 51.3 (57544) - http://www.bohemiancoding.com/sketch -->
    <title>退款</title>
    <desc>Created with Sketch.</desc>
    <defs></defs>
    <g id="Page-1" stroke="none" stroke-width="1" fill="none" fill-rule="evenodd">
        <g id="个人中心" transform="translate(-211.000000, -254.000000)" fill="#50C898" fill-rule="nonzero" stroke="#4FC898" stroke-width="0.3">
            <g id="退款" transform="translate(211.000000, 254.000000)">
                <path d="M18.5787672,33.0000337 L9.80625696,33.0000337 C9.00875603,33.0000337 8.01187987,32.2000328 8.01187987,31.4000319 L8.01187987,7.80000442 C8.01187987,7.00000349 9.00875603,6.00000233 9.80625696,6.00000233 L28.5475288,6.00000233 C29.3450297,6.00000233 30.1425306,7.00000349 30.1425306,7.80000442 L30.1425306,20.0000186 C30.1425306,20.6000193 30.5412811,21.0000198 31.1394068,21.0000198 C31.7375325,21.0000198 32.1362829,20.6000193 32.1362829,20.0000186 L32.1362829,7.80000442 C32.1362829,5.80000209 30.5412811,4.20000023 28.5475288,4.20000023 L9.80625696,4.20000023 C7.81250464,4.20000023 6.21750278,5.80000209 6.21750278,7.80000442 L6.21750278,31.2000317 C6.21750278,33.200034 7.81250464,34.8000358 9.80625696,34.8000358 L18.5787672,34.8000358 C19.1768929,34.8000358 19.5756433,34.4000354 19.5756433,33.8000347 C19.5756433,33.200034 19.3762681,32.8000335 18.7781424,32.8000335 L18.5787672,32.8000335 L18.5787672,33.0000337 Z M27.7500278,36.0000372 C23.9618984,36.0000372 20.97127,33.0000337 20.97127,29.2000293 C20.97127,25.4000249 23.9618984,22.4000214 27.7500278,22.4000214 C31.5381572,22.4000214 34.5287857,25.4000249 34.5287857,29.2000293 C34.5287857,33.0000337 31.5381572,36.0000372 27.7500278,36.0000372 Z M27.7500278,23.6000228 C24.7593994,23.6000228 22.1675213,26.0000256 22.1675213,29.2000293 C22.1675213,32.400033 24.5600241,34.8000358 27.7500278,34.8000358 C30.9400316,34.8000358 33.3325343,32.400033 33.3325343,29.2000293 C33.3325343,26.0000256 30.7406563,23.6000228 27.7500278,23.6000228 Z M30.1425306,29.0000291 C30.3419059,29.0000291 30.5412811,29.2000293 30.5412811,29.4000296 C30.5412811,29.80003 30.3419059,29.80003 30.1425306,29.80003 L28.5475288,29.80003 L28.5475288,30.600031 L30.1425306,30.600031 C30.3419059,30.600031 30.5412811,30.8000312 30.5412811,31.0000314 C30.5412811,31.4000319 30.3419059,31.4000319 30.1425306,31.4000319 L28.5475288,31.4000319 L28.5475288,32.6000333 C28.5475288,33.0000337 28.3481535,33.4000342 27.7500278,33.4000342 C27.1519021,33.4000342 26.9525269,33.200034 26.9525269,32.6000333 L26.9525269,31.4000319 L25.3575251,31.4000319 C24.9587746,31.4000319 24.9587746,31.2000317 24.9587746,31.0000314 C24.9587746,30.8000312 25.1581498,30.600031 25.3575251,30.600031 L26.9525269,30.600031 L26.9525269,30.0000303 L25.3575251,30.0000303 C24.9587746,30.0000303 24.9587746,29.80003 24.9587746,29.6000298 C24.9587746,29.4000296 25.1581498,29.2000293 25.3575251,29.2000293 L26.155026,29.2000293 L24.7593994,27.4000272 C24.5600241,27.200027 24.5600241,27.200027 24.5600241,27.0000268 C24.5600241,26.6000263 24.7593994,26.2000258 25.3575251,26.2000258 C25.5569003,26.2000258 25.7562755,26.4000261 25.9556508,26.6000263 L27.5506526,28.8000289 L29.1456545,26.6000263 C29.5444049,26.0000256 29.7437802,26.0000256 29.9431554,26.0000256 C30.3419059,26.0000256 30.7406563,26.4000261 30.7406563,26.8000265 C30.7406563,27.0000268 30.7406563,27.200027 30.5412811,27.200027 L29.1456545,29.0000291 L30.1425306,29.0000291 Z M14.5912625,15.0000128 L16.3856396,13.8000114 C15.7875139,13.0000105 14.5912625,12.0000093 13.5943864,11.2000084 L12.1987597,12.4000098 C12.9962607,13.0000105 14.1925121,14.4000121 14.5912625,15.0000128 Z M21.7687709,24.0000233 C19.9743938,24.0000233 18.5787672,23.800023 17.3825158,23.4000226 C16.7843901,23.2000223 16.1862644,22.8000219 15.9868892,22.6000216 L15.9868892,16.6000147 L11.9993845,16.6000147 L11.9993845,18.4000168 L13.9931368,18.4000168 L13.9931368,22.8000219 L11.600634,24.600024 L12.7968854,26.4000261 C13.5943864,25.4000249 14.5912625,24.4000237 15.1893882,24.4000237 C15.5881387,24.4000237 16.1862644,24.8000242 16.9837653,25.2000247 C17.9806415,25.6000251 18.9775176,25.8000254 20.3731443,26.0000256 C20.7718947,25.2000247 21.1706452,24.600024 21.7687709,24.0000233 Z M22.3668966,20.6000193 L19.9743938,21.20002 L19.9743938,17.8000161 L25.7562755,17.8000161 C25.3575251,18.2000165 24.7593994,18.8000172 23.9618984,19.2000177 C23.3637727,18.8000172 22.9650223,18.4000168 22.3668966,18.0000163 L20.97127,19.0000175 C22.1675213,19.8000184 23.3637727,20.8000195 24.3606489,22.0000209 C24.9587746,21.8000207 25.5569003,21.6000205 25.9556508,21.4000202 C25.5569003,21.0000198 25.1581498,20.8000195 24.7593994,20.4000191 L27.1519021,19.0000175 L25.7562755,18.0000163 L25.7562755,11.2000084 L17.7812662,11.2000084 L17.7812662,20.4000191 C17.7812662,21.20002 17.3825158,21.8000207 16.9837653,22.0000209 C17.3825158,22.4000214 17.7812662,23.2000223 17.9806415,23.6000228 C18.3793919,23.2000223 18.9775176,23.2000223 22.5662718,22.4000214 C22.5662718,22.0000209 22.3668966,21.20002 22.3668966,20.6000193 Z M19.7750186,13.0000105 L24.1612737,13.0000105 L24.1612737,14.0000116 L19.7750186,14.0000116 L19.7750186,13.0000105 Z M19.7750186,15.200013 L24.1612737,15.200013 L24.1612737,16.2000142 L19.7750186,16.2000142 L19.7750186,15.200013 Z" id="Shape"></path>
            </g>
        </g>
    </g>
</svg>