<?xml version="1.0" encoding="UTF-8"?>
<svg width="40px" height="40px" viewBox="0 0 40 40" version="1.1" xmlns="http://www.w3.org/2000/svg" xmlns:xlink="http://www.w3.org/1999/xlink">
    <!-- Generator: Sketch 51.3 (57544) - http://www.bohemiancoding.com/sketch -->
    <title>待支付@1x</title>
    <desc>Created with Sketch.</desc>
    <defs></defs>
    <g id="Page-1" stroke="none" stroke-width="1" fill="none" fill-rule="evenodd">
        <g id="个人中心" transform="translate(-36.000000, -254.000000)" fill="#4FC898" fill-rule="nonzero">
            <g id="待支付" transform="translate(36.000000, 254.000000)">
                <g id="Group" transform="translate(3.199220, 7.501471)">
                    <path d="M29.3840093,24.8054317 L1.28006101,24.8054317 C0.574288243,24.8054317 0.00278274133,24.2311268 0.00278274133,23.5234575 L0.00278274133,1.29943022 C0.00278274133,0.591062699 0.574636085,0.017456075 1.28006101,0.017456075 L29.3836614,0.017456075 C30.0890864,0.017456075 30.6609397,0.591411821 30.6609397,1.29943022 L30.6609397,7.17584331 C30.6609397,7.88421083 30.0887385,8.45781746 29.3836614,8.45781746 C28.6782365,8.45781746 28.1063832,7.88386171 28.1063832,7.17584331 L28.1063832,2.58140437 L2.55768713,2.58140437 L2.55768713,22.2407852 L28.1063832,22.2407852 L28.1063832,17.6463462 C28.1063832,16.9383278 28.6785843,16.3643721 29.3836614,16.3643721 C30.0890864,16.3643721 30.6609397,16.9386769 30.6609397,17.6463462 L30.6609397,23.5227593 C30.6612875,24.2311268 30.0890864,24.8054317 29.3840093,24.8054317 Z" id="Shape"></path>
                    <path d="M31.9389137,13.6932435 L23.4226816,13.6932435 C22.7172567,13.6932435 22.1454034,13.1192877 22.1454034,12.4112693 C22.1454034,11.7029018 22.7176046,11.1292952 23.4226816,11.1292952 L31.9389137,11.1292952 C32.6443386,11.1292952 33.2161919,11.7032509 33.2161919,12.4112693 C33.2161919,13.1196368 32.6439907,13.6932435 31.9389137,13.6932435 Z" id="Shape" fill-opacity="0.401211504"></path>
                </g>
            </g>
        </g>
    </g>
</svg>