<?xml version="1.0" encoding="UTF-8"?>
<svg width="40px" height="40px" viewBox="0 0 40 40" version="1.1" xmlns="http://www.w3.org/2000/svg" xmlns:xlink="http://www.w3.org/1999/xlink">
    <!-- Generator: Sketch 51.3 (57544) - http://www.bohemiancoding.com/sketch -->
    <title>全部</title>
    <desc>Created with Sketch.</desc>
    <defs></defs>
    <g id="Page-1" stroke="none" stroke-width="1" fill="none" fill-rule="evenodd">
        <g id="个人中心" transform="translate(-297.000000, -254.000000)" fill="#50C898" fill-rule="nonzero" stroke="#50C898" stroke-width="0.5">
            <g id="全部" transform="translate(297.000000, 254.000000)">
                <path d="M17.8211132,6.15478056 L8.14238028,6.15478056 C7.19180434,6.15478056 6.41404624,6.93253866 6.41404624,7.88315354 L6.41404624,17.6482565 C6.41404624,18.5988324 7.19180434,19.3765905 8.14238028,19.3765905 L17.9074832,19.3765905 C18.8580981,19.3765905 19.6358562,18.5988324 19.6358562,17.6482565 L19.6358562,7.88315354 C19.5494083,6.93253866 18.7716892,6.15478056 17.8211132,6.15478056 Z M17.8211132,17.6482565 L8.14238028,17.6482565 L8.14238028,7.88315354 L17.9074832,7.88315354 L17.8211132,17.6482565 Z M33.6354242,8.83369053 C33.1168929,8.83369053 32.7712572,9.17940407 32.7712572,9.69789649 L32.7712572,17.6482565 L23.0061153,17.6482565 L23.0061153,7.88315354 L31.215741,7.88315354 C31.7342334,7.88315354 32.079908,7.53747894 32.079908,7.01894758 C32.079908,6.50041621 31.7342334,6.15478056 31.215741,6.15478056 L23.0061153,6.15478056 C22.0555394,6.15478056 21.2777813,6.93253866 21.2777813,7.88315354 L21.2777813,17.6482565 C21.2777813,18.5988324 22.0555394,19.3765905 23.0061153,19.3765905 L32.7712183,19.3765905 C33.7218331,19.3765905 34.4995912,18.5988324 34.4995912,17.6482565 L34.4995912,9.69793543 C34.4995912,9.17944301 34.0675077,8.83376841 33.6354242,8.83376841 L33.6354242,8.83369053 Z M17.8211132,21.1914113 L8.14238028,21.1914113 C7.19180434,21.1914113 6.41404624,21.9691694 6.41404624,22.9197454 L6.41404624,32.6848483 C6.41404624,33.6354632 7.19180434,34.4132213 8.14238028,34.4132213 L17.9074832,34.4132213 C18.8580981,34.4132213 19.6358562,33.6354632 19.6358562,32.6848483 L19.6358562,22.9197454 C19.5494083,21.9691694 18.7716892,21.1914113 17.8211132,21.1914113 Z M17.8211132,32.6848483 L8.14238028,32.6848483 L8.14238028,22.9197454 L17.9074832,22.9197454 L17.8211132,32.6848483 Z M32.7712572,21.1914113 L23.0061153,21.1914113 C22.0555394,21.1914113 21.2777813,21.9691694 21.2777813,22.9197454 L21.2777813,32.6848483 C21.2777813,33.6354632 22.0555394,34.4132213 23.0061153,34.4132213 L32.7712183,34.4132213 C33.7218331,34.4132213 34.4995912,33.6354632 34.4995912,32.6848483 L34.4995912,22.9197454 C34.4995912,21.9691694 33.7218331,21.1914113 32.7712572,21.1914113 Z M32.7712572,32.6848483 L23.0061153,32.6848483 L23.0061153,22.9197454 L32.7712572,22.9197454 L32.7712572,32.6848483 Z" id="Shape"></path>
            </g>
        </g>
    </g>
</svg>