<?xml version="1.0" encoding="UTF-8"?>
<svg width="40px" height="40px" viewBox="0 0 40 40" version="1.1" xmlns="http://www.w3.org/2000/svg" xmlns:xlink="http://www.w3.org/1999/xlink">
    <!-- Generator: Sketch 51.3 (57544) - http://www.bohemiancoding.com/sketch -->
    <title>已完成@1x</title>
    <desc>Created with Sketch.</desc>
    <defs></defs>
    <g id="Page-1" stroke="none" stroke-width="1" fill="none" fill-rule="evenodd">
        <g id="个人中心" transform="translate(-123.000000, -254.000000)" fill="#4FC898" fill-rule="nonzero" stroke="#4FC898" stroke-width="0.5">
            <g id="已完成" transform="translate(123.000000, 254.000000)">
                <path d="M33.085292,11.7953516 C33.0958446,11.5104306 32.9973534,11.2219931 32.786301,10.9968709 C32.3677127,10.5501432 31.6677234,10.532557 31.2245123,10.9476253 L18.5508131,22.872086 L14.2418331,18.7882281 C13.798622,18.3661233 13.1021493,18.3872295 12.6800444,18.8304386 C12.2614561,19.2736498 12.2790458,19.9701224 12.7222549,20.3922273 L17.7875202,25.1936641 C18.0020902,25.3941641 18.2729404,25.4961728 18.5473083,25.4961728 C18.8181588,25.4961728 19.0925273,25.3941641 19.3035798,25.1971817 L31.6079535,13.6244808 C32.6737688,15.5696818 33.2365741,17.747045 33.2365741,19.9912194 C33.2365741,27.2971529 27.2954328,33.2382942 19.9894993,33.2382942 C12.6835658,33.2382942 6.74242452,27.2971529 6.74242452,19.9912194 C6.74242452,12.6852859 12.6835658,6.74414465 19.9894993,6.74414465 C22.1140933,6.74414465 24.1401823,7.23308147 26.018572,8.19337227 C26.563791,8.47477563 27.2286077,8.256688 27.5029756,7.71498515 C27.7808613,7.17328265 27.5662913,6.50846937 27.0245884,6.23058155 C24.833159,5.108484 22.46938,4.53864552 19.9894959,4.53864552 C11.4664797,4.53161043 4.53341226,11.4647005 4.53341226,19.9876822 C4.53341226,28.5106984 11.4664797,35.4437659 19.9894959,35.4437659 C28.512512,35.4437659 35.4455795,28.5106984 35.4455795,19.9876822 C35.4455795,17.0751573 34.6259926,14.2505568 33.0853102,11.7953196 L33.085292,11.7953516 Z" id="Shape"></path>
            </g>
        </g>
    </g>
</svg>